<svg version="1.1" id="Layer_1" xmlns="http://www.w3.org/2000/svg" xmlns:xlink="http://www.w3.org/1999/xlink" x="0px" y="0px"
	 width="100%" viewBox="0 0 600 200" enable-background="new 0 0 600 200" xml:space="preserve">
<path fill="#FEFEFE" opacity="1.000000" stroke="none" 
	d="
M386.000000,201.000000 
	C257.373383,201.000000 129.246750,201.000000 1.060068,201.000000 
	C1.060068,134.394257 1.060068,67.788445 1.060068,1.091313 
	C200.876587,1.091313 400.753235,1.091313 600.814941,1.091313 
	C600.814941,67.666260 600.814941,134.333084 600.814941,201.000000 
	C529.455139,201.000000 457.977570,201.000000 386.000000,201.000000 
M75.584602,119.990051 
	C75.707245,119.663963 75.829887,119.337868 76.134094,118.093735 
	C76.134094,113.979614 76.134094,109.865494 76.134094,105.215675 
	C64.603500,105.215675 53.505669,105.521187 42.437729,105.078766 
	C37.375786,104.876434 35.965214,107.086975 35.959988,111.327980 
	C35.957554,113.304237 35.826126,115.454895 36.546196,117.199112 
	C37.069195,118.465965 38.883556,120.019897 40.140095,120.035919 
	C51.761108,120.184067 63.386032,120.025421 75.584602,119.990051 
M258.010590,119.573692 
	C258.335846,119.697594 258.661102,119.821495 259.909058,120.134209 
	C271.943085,120.072418 283.977081,120.010628 296.571136,119.982887 
	C296.685944,119.661957 296.800751,119.341026 297.089539,118.100090 
	C297.089539,113.888321 297.089539,109.676552 297.089539,105.216576 
	C285.707336,105.216576 275.126312,105.216011 264.545319,105.216774 
	C257.275238,105.217300 256.086609,106.439667 256.646149,113.828331 
	C256.778625,115.577309 257.520721,117.280113 258.010590,119.573692 
M430.949646,119.616287 
	C431.296326,119.732117 431.642975,119.847946 432.915497,120.131721 
	C444.614716,120.069702 456.313965,120.007683 468.500824,120.043716 
	C468.500824,120.043716 468.961792,119.856796 469.718903,119.487808 
	C469.718903,114.894485 469.718903,110.301163 469.718903,105.203171 
	C458.867706,105.203171 448.440308,105.203041 438.012939,105.203217 
	C429.966125,105.203346 428.621918,106.729004 429.738708,114.792603 
	C429.937958,116.231499 430.472778,117.623932 430.949646,119.616287 
M173.909973,120.130112 
	C185.850754,120.130112 197.791519,120.130112 209.642700,120.130112 
	C211.734222,133.961472 206.119781,141.746063 194.396179,141.900864 
	C191.233963,141.942627 188.070770,141.908646 184.908020,141.908737 
	C177.325760,141.908981 169.743484,141.908813 162.238724,141.908813 
	C162.238724,147.034576 162.238724,151.451508 162.238724,156.149643 
	C174.324387,156.149643 186.119247,156.372604 197.901749,156.086426 
	C209.497360,155.804810 220.682816,148.208755 223.166183,136.937286 
	C225.401718,126.790588 225.015793,116.066330 225.813354,105.226799 
	C211.880875,105.226799 199.417618,105.162300 186.957031,105.314133 
	C185.513107,105.331734 183.751038,106.219635 182.707657,107.270943 
	C178.972595,111.034355 175.483337,115.041733 171.362411,119.191612 
	C171.903915,119.442398 172.445435,119.693184 173.909973,120.130112 
M523.438660,70.879631 
	C510.857239,67.437988 498.099976,69.613060 485.428467,68.892418 
	C485.428467,74.264450 485.428467,78.834824 485.428467,83.283226 
	C486.064087,83.519394 486.365387,83.727890 486.667908,83.729668 
	C494.994202,83.778824 503.321808,83.729355 511.646759,83.857132 
	C523.518066,84.039330 534.078918,91.540970 538.006775,102.600899 
	C541.846313,113.412079 540.005615,123.344971 532.503662,131.949936 
	C523.801086,141.931961 512.272278,142.773514 499.760925,141.528641 
	C499.760925,124.586288 499.760925,107.986664 499.760925,91.305054 
	C494.675293,91.305054 489.994263,91.305054 485.465881,91.305054 
	C485.465881,113.128639 485.465881,134.525650 485.465881,156.166977 
	C494.823578,156.166977 503.811493,156.303268 512.791565,156.098022 
	C516.248230,156.019012 519.811340,155.578812 523.113403,154.591934 
	C541.593506,149.068863 554.053650,132.728516 554.704163,113.521049 
	C555.332520,94.970261 543.400757,78.362427 523.438660,70.879631 
M91.289207,136.745407 
	C88.718788,142.996170 86.148369,149.246933 83.287682,156.203583 
	C87.827377,156.203583 91.622528,156.020279 95.390068,156.263931 
	C98.200897,156.445709 99.598198,155.380646 100.549065,152.804306 
	C102.215393,148.289444 104.179466,143.883667 106.047440,139.444229 
	C110.445602,128.991501 114.860634,118.545876 119.634644,107.230347 
	C124.655670,119.239120 129.298111,130.342422 134.134521,141.909637 
	C128.112915,141.909637 122.800987,141.813690 117.497231,141.979355 
	C116.224510,142.019104 114.299622,142.584900 113.838684,143.497009 
	C111.862053,147.408401 110.320038,151.539413 108.469505,155.948029 
	C124.598595,155.948029 139.853333,155.948029 155.880478,155.948029 
	C143.796829,127.009438 131.920059,98.566254 119.578026,69.008865 
	C109.917946,92.246826 100.804398,114.170090 91.289207,136.745407 
M347.541901,117.916893 
	C342.308655,105.340897 337.059937,92.771301 331.846588,80.187042 
	C326.930817,68.321068 326.947144,68.312561 314.010162,69.030701 
	C313.689301,69.048515 313.376617,69.213951 312.881165,69.365150 
	C312.881165,98.170898 312.881165,127.024323 312.881165,155.782578 
	C317.845642,155.782578 322.402863,155.782578 327.256714,155.782578 
	C327.256714,140.008163 327.256714,124.642387 327.256714,107.979462 
	C328.286621,110.166740 328.794739,111.151558 329.223083,112.169914 
	C334.892517,125.649124 340.501678,139.154175 346.284027,152.584702 
	C346.894989,154.003723 348.419464,155.894562 349.670776,156.016144 
	C354.024170,156.439148 358.443817,156.179611 363.514496,156.179611 
	C358.073975,143.083450 352.987732,130.840134 347.541901,117.916893 
M454.555237,83.824005 
	C459.498352,83.824005 464.441467,83.824005 469.622803,83.824005 
	C469.622803,78.665794 469.622803,74.097031 469.622803,68.990517 
	C462.803040,68.990517 456.191162,68.794922 449.594025,69.023735 
	C417.889160,70.123383 397.600494,105.052559 412.861237,132.862015 
	C425.856659,156.543396 445.414856,158.042313 469.551239,155.467285 
	C469.551239,151.070862 469.551239,146.673752 469.551239,141.896164 
	C463.263824,141.896164 457.292908,142.038223 451.330780,141.869736 
	C432.858063,141.347702 420.038422,125.604477 422.929199,107.405014 
	C424.707916,96.206596 435.951935,82.636688 454.555237,83.824005 
M297.113953,148.518921 
	C297.113953,146.420746 297.113953,144.322586 297.113953,141.907486 
	C290.860474,141.907486 285.228455,141.953613 279.597443,141.898880 
	C262.367676,141.731415 249.618423,129.104401 249.534973,112.551071 
	C249.452881,96.271278 263.757263,82.925095 279.460388,83.770027 
	C285.214569,84.079643 290.999390,83.819946 296.876160,83.819946 
	C296.876160,78.601807 296.876160,74.016006 296.876160,68.985023 
	C290.033691,68.985023 283.412750,68.800415 276.804932,69.016586 
	C246.160614,70.019112 226.013382,102.621986 238.721817,130.531433 
	C248.236404,151.426727 272.441742,161.794388 297.113983,155.385788 
	C297.113983,153.462952 297.113983,151.479935 297.113953,148.518921 
M76.007568,142.697525 
	C70.433205,142.434402 64.860878,142.007935 59.284096,141.938522 
	C41.886719,141.721954 29.338909,129.404083 28.876690,112.853897 
	C28.474306,98.446091 41.143456,82.950882 59.042763,83.777908 
	C64.638535,84.036453 70.256348,83.818199 75.889572,83.818199 
	C75.889572,78.554237 75.889572,73.964417 75.889572,68.538376 
	C67.005089,69.019600 58.323761,68.820137 49.862373,70.088242 
	C32.511856,72.688553 17.966005,87.195808 15.127679,103.685265 
	C11.742271,123.353050 19.853371,141.024048 36.068470,150.601654 
	C48.713978,158.070847 62.325272,155.882507 76.134727,156.117111 
	C76.134727,151.602921 76.134727,147.632721 76.007568,142.697525 
M384.108490,147.449707 
	C384.108490,150.225464 384.108490,153.001221 384.108490,155.881927 
	C389.287933,155.881927 393.851349,155.881927 398.585785,155.881927 
	C398.585785,126.850746 398.585785,98.141518 398.585785,68.973984 
	C395.353882,68.973984 392.358307,69.270760 389.447113,68.901718 
	C385.466003,68.397049 383.621429,69.985321 382.144257,73.643814 
	C375.306885,90.578186 368.149719,107.383324 361.150574,124.252777 
	C360.588531,125.607376 359.676483,127.340836 360.084473,128.485825 
	C362.189453,134.392960 364.671936,140.165588 367.457733,147.062027 
	C373.137512,133.619812 378.255646,121.506805 383.373810,109.393791 
	C383.618713,109.464401 383.863647,109.535019 384.108551,109.605629 
	C384.108551,121.890564 384.108551,134.175507 384.108490,147.449707 
M170.248138,111.724258 
	C173.655396,108.149971 176.758423,104.965065 176.388702,98.984245 
	C175.813019,89.671844 182.530701,83.864395 192.226517,83.828583 
	C203.007034,83.788757 213.787781,83.819458 224.792389,83.819458 
	C224.792389,78.656883 224.792389,73.960205 224.792389,68.975456 
	C213.843536,68.975456 203.213608,68.973213 192.583679,68.978287 
	C191.252335,68.978920 189.913910,68.936676 188.590805,69.052208 
	C175.762817,70.172401 164.076004,79.770226 162.503082,92.091713 
	C161.386139,100.841278 162.286530,109.848381 162.286530,120.306313 
	C165.336243,117.009178 167.542252,114.624207 170.248138,111.724258 
M593.837708,37.863808 
	C591.266174,26.375526 583.890320,20.295715 573.338318,20.966455 
	C564.213196,21.546495 556.589355,28.988319 555.970032,37.920265 
	C555.170654,49.447189 562.827942,58.328358 573.645813,59.118275 
	C584.132202,59.883984 594.930298,50.487762 593.837708,37.863808 
z"/>
<path fill="#DF7820" opacity="1.000000" stroke="none" 
	d="
M523.826660,70.981102 
	C543.400757,78.362427 555.332520,94.970261 554.704163,113.521049 
	C554.053650,132.728516 541.593506,149.068863 523.113403,154.591934 
	C519.811340,155.578812 516.248230,156.019012 512.791565,156.098022 
	C503.811493,156.303268 494.823578,156.166977 485.465881,156.166977 
	C485.465881,134.525650 485.465881,113.128639 485.465881,91.305054 
	C489.994263,91.305054 494.675293,91.305054 499.760925,91.305054 
	C499.760925,107.986664 499.760925,124.586288 499.760925,141.528641 
	C512.272278,142.773514 523.801086,141.931961 532.503662,131.949936 
	C540.005615,123.344971 541.846313,113.412079 538.006775,102.600899 
	C534.078918,91.540970 523.518066,84.039330 511.646759,83.857132 
	C503.321808,83.729355 494.994202,83.778824 486.667908,83.729668 
	C486.365387,83.727890 486.064087,83.519394 485.428467,83.283226 
	C485.428467,78.834824 485.428467,74.264450 485.428467,68.892418 
	C498.099976,69.613060 510.857239,67.437988 523.826660,70.981102 
z"/>
<path fill="#207772" opacity="1.000000" stroke="none" 
	d="
M91.490021,136.419373 
	C100.804398,114.170090 109.917946,92.246826 119.578026,69.008865 
	C131.920059,98.566254 143.796829,127.009438 155.880478,155.948029 
	C139.853333,155.948029 124.598595,155.948029 108.469505,155.948029 
	C110.320038,151.539413 111.862053,147.408401 113.838684,143.497009 
	C114.299622,142.584900 116.224510,142.019104 117.497231,141.979355 
	C122.800987,141.813690 128.112915,141.909637 134.134521,141.909637 
	C129.298111,130.342422 124.655670,119.239120 119.634644,107.230347 
	C114.860634,118.545876 110.445602,128.991501 106.047440,139.444229 
	C104.179466,143.883667 102.215393,148.289444 100.549065,152.804306 
	C99.598198,155.380646 98.200897,156.445709 95.390068,156.263931 
	C91.622528,156.020279 87.827377,156.203583 83.287682,156.203583 
	C86.148369,149.246933 88.718788,142.996170 91.490021,136.419373 
z"/>
<path fill="#DE771D" opacity="1.000000" stroke="none" 
	d="
M347.721710,118.256851 
	C352.987732,130.840134 358.073975,143.083450 363.514496,156.179611 
	C358.443817,156.179611 354.024170,156.439148 349.670776,156.016144 
	C348.419464,155.894562 346.894989,154.003723 346.284027,152.584702 
	C340.501678,139.154175 334.892517,125.649124 329.223083,112.169914 
	C328.794739,111.151558 328.286621,110.166740 327.256714,107.979462 
	C327.256714,124.642387 327.256714,140.008163 327.256714,155.782578 
	C322.402863,155.782578 317.845642,155.782578 312.881165,155.782578 
	C312.881165,127.024323 312.881165,98.170898 312.881165,69.365150 
	C313.376617,69.213951 313.689301,69.048515 314.010162,69.030701 
	C326.947144,68.312561 326.930817,68.321068 331.846588,80.187042 
	C337.059937,92.771301 342.308655,105.340897 347.721710,118.256851 
z"/>
<path fill="#DE7820" opacity="1.000000" stroke="none" 
	d="
M454.068024,83.824265 
	C435.951935,82.636688 424.707916,96.206596 422.929199,107.405014 
	C420.038422,125.604477 432.858063,141.347702 451.330780,141.869736 
	C457.292908,142.038223 463.263824,141.896164 469.551239,141.896164 
	C469.551239,146.673752 469.551239,151.070862 469.551239,155.467285 
	C445.414856,158.042313 425.856659,156.543396 412.861237,132.862015 
	C397.600494,105.052559 417.889160,70.123383 449.594025,69.023735 
	C456.191162,68.794922 462.803040,68.990517 469.622803,68.990517 
	C469.622803,74.097031 469.622803,78.665794 469.622803,83.824005 
	C464.441467,83.824005 459.498352,83.824005 454.068024,83.824265 
z"/>
<path fill="#207772" opacity="1.000000" stroke="none" 
	d="
M297.113953,149.007935 
	C297.113983,151.479935 297.113983,153.462952 297.113983,155.385788 
	C272.441742,161.794388 248.236404,151.426727 238.721817,130.531433 
	C226.013382,102.621986 246.160614,70.019112 276.804932,69.016586 
	C283.412750,68.800415 290.033691,68.985023 296.876160,68.985023 
	C296.876160,74.016006 296.876160,78.601807 296.876160,83.819946 
	C290.999390,83.819946 285.214569,84.079643 279.460388,83.770027 
	C263.757263,82.925095 249.452881,96.271278 249.534973,112.551071 
	C249.618423,129.104401 262.367676,141.731415 279.597443,141.898880 
	C285.228455,141.953613 290.860474,141.907486 297.113953,141.907486 
	C297.113953,144.322586 297.113953,146.420746 297.113953,149.007935 
z"/>
<path fill="#207772" opacity="1.000000" stroke="none" 
	d="
M76.071152,143.180023 
	C76.134727,147.632721 76.134727,151.602921 76.134727,156.117111 
	C62.325272,155.882507 48.713978,158.070847 36.068470,150.601654 
	C19.853371,141.024048 11.742271,123.353050 15.127679,103.685265 
	C17.966005,87.195808 32.511856,72.688553 49.862373,70.088242 
	C58.323761,68.820137 67.005089,69.019600 75.889572,68.538376 
	C75.889572,73.964417 75.889572,78.554237 75.889572,83.818199 
	C70.256348,83.818199 64.638535,84.036453 59.042763,83.777908 
	C41.143456,82.950882 28.474306,98.446091 28.876690,112.853897 
	C29.338909,129.404083 41.886719,141.721954 59.284096,141.938522 
	C64.860878,142.007935 70.433205,142.434402 76.071152,143.180023 
z"/>
<path fill="#DF7921" opacity="1.000000" stroke="none" 
	d="
M384.108521,146.955078 
	C384.108551,134.175507 384.108551,121.890564 384.108551,109.605629 
	C383.863647,109.535019 383.618713,109.464401 383.373810,109.393791 
	C378.255646,121.506805 373.137512,133.619812 367.457733,147.062027 
	C364.671936,140.165588 362.189453,134.392960 360.084473,128.485825 
	C359.676483,127.340836 360.588531,125.607376 361.150574,124.252777 
	C368.149719,107.383324 375.306885,90.578186 382.144257,73.643814 
	C383.621429,69.985321 385.466003,68.397049 389.447113,68.901718 
	C392.358307,69.270760 395.353882,68.973984 398.585785,68.973984 
	C398.585785,98.141518 398.585785,126.850746 398.585785,155.881927 
	C393.851349,155.881927 389.287933,155.881927 384.108490,155.881927 
	C384.108490,153.001221 384.108490,150.225464 384.108521,146.955078 
z"/>
<path fill="#207772" opacity="1.000000" stroke="none" 
	d="
M171.901108,118.956833 
	C175.483337,115.041733 178.972595,111.034355 182.707657,107.270943 
	C183.751038,106.219635 185.513107,105.331734 186.957031,105.314133 
	C199.417618,105.162300 211.880875,105.226799 225.813354,105.226799 
	C225.015793,116.066330 225.401718,126.790588 223.166183,136.937286 
	C220.682816,148.208755 209.497360,155.804810 197.901749,156.086426 
	C186.119247,156.372604 174.324387,156.149643 162.238724,156.149643 
	C162.238724,151.451508 162.238724,147.034576 162.238724,141.908813 
	C169.743484,141.908813 177.325760,141.908981 184.908020,141.908737 
	C188.070770,141.908646 191.233963,141.942627 194.396179,141.900864 
	C206.119781,141.746063 211.734222,133.961472 209.642700,120.130112 
	C197.791519,120.130112 185.850754,120.130112 173.325439,119.816711 
	C172.460968,119.321152 172.181030,119.138992 171.901108,118.956833 
z"/>
<path fill="#207772" opacity="1.000000" stroke="none" 
	d="
M169.998199,111.981743 
	C167.542252,114.624207 165.336243,117.009178 162.286530,120.306313 
	C162.286530,109.848381 161.386139,100.841278 162.503082,92.091713 
	C164.076004,79.770226 175.762817,70.172401 188.590805,69.052208 
	C189.913910,68.936676 191.252335,68.978920 192.583679,68.978287 
	C203.213608,68.973213 213.843536,68.975456 224.792389,68.975456 
	C224.792389,73.960205 224.792389,78.656883 224.792389,83.819458 
	C213.787781,83.819458 203.007034,83.788757 192.226517,83.828583 
	C182.530701,83.864395 175.813019,89.671844 176.388702,98.984245 
	C176.758423,104.965065 173.655396,108.149971 169.998199,111.981743 
z"/>
<path fill="#DF7A23" opacity="1.000000" stroke="none" 
	d="
M468.013184,119.945663 
	C456.313965,120.007683 444.614716,120.069702 432.329010,119.823654 
	C431.445892,119.356331 431.149292,119.197083 430.852661,119.037827 
	C430.472778,117.623932 429.937958,116.231499 429.738708,114.792603 
	C428.621918,106.729004 429.966125,105.203346 438.012939,105.203217 
	C448.440308,105.203041 458.867706,105.203171 469.718903,105.203171 
	C469.718903,110.301163 469.718903,114.894485 469.241638,119.528473 
	C468.513977,119.694641 468.263580,119.820145 468.013184,119.945663 
z"/>
<path fill="#227873" opacity="1.000000" stroke="none" 
	d="
M296.011108,119.948837 
	C283.977081,120.010628 271.943085,120.072418 259.339844,119.827240 
	C258.561157,119.266907 258.298431,119.094864 257.982422,119.004158 
	C257.520721,117.280113 256.778625,115.577309 256.646149,113.828331 
	C256.086609,106.439667 257.275238,105.217300 264.545319,105.216774 
	C275.126312,105.216011 285.707336,105.216576 297.089539,105.216576 
	C297.089539,109.676552 297.089539,113.888321 296.800232,118.658493 
	C296.259918,119.403214 296.093323,119.647194 296.011108,119.948837 
z"/>
<path fill="#237974" opacity="1.000000" stroke="none" 
	d="
M75.009819,119.955925 
	C63.386032,120.025421 51.761108,120.184067 40.140095,120.035919 
	C38.883556,120.019897 37.069195,118.465965 36.546196,117.199112 
	C35.826126,115.454895 35.957554,113.304237 35.959988,111.327980 
	C35.965214,107.086975 37.375786,104.876434 42.437729,105.078766 
	C53.505669,105.521187 64.603500,105.215675 76.134094,105.215675 
	C76.134094,109.865494 76.134094,113.979614 75.833214,118.650871 
	C75.268372,119.394577 75.094200,119.643883 75.009819,119.955925 
z"/>
<path fill="#202020" opacity="1.000000" stroke="none" 
	d="
M593.858459,38.291843 
	C594.930298,50.487762 584.132202,59.883984 573.645813,59.118275 
	C562.827942,58.328358 555.170654,49.447189 555.970032,37.920265 
	C556.589355,28.988319 564.213196,21.546495 573.338318,20.966455 
	C583.890320,20.295715 591.266174,26.375526 593.858459,38.291843 
M564.611267,52.998627 
	C573.492859,59.290070 581.968323,56.775532 587.378845,50.628605 
	C593.065918,44.167389 592.696350,34.947739 587.029358,28.859550 
	C580.771851,22.136803 570.351440,21.668274 563.742859,27.812572 
	C556.380859,34.657352 556.497070,44.457428 564.611267,52.998627 
z"/>
<path fill="#0F6C67" opacity="1.000000" stroke="none" 
	d="
M171.631760,119.074219 
	C172.181030,119.138992 172.460968,119.321152 172.863922,119.723648 
	C172.445435,119.693184 171.903915,119.442398 171.631760,119.074219 
z"/>
<path fill="#0F6C67" opacity="1.000000" stroke="none" 
	d="
M75.297211,119.972992 
	C75.094200,119.643883 75.268372,119.394577 75.742432,119.109894 
	C75.829887,119.337868 75.707245,119.663963 75.297211,119.972992 
z"/>
<path fill="#0F6C67" opacity="1.000000" stroke="none" 
	d="
M257.996521,119.288925 
	C258.298431,119.094864 258.561157,119.266907 258.878479,119.732834 
	C258.661102,119.821495 258.335846,119.697594 257.996521,119.288925 
z"/>
<path fill="#0F6C67" opacity="1.000000" stroke="none" 
	d="
M296.291138,119.965866 
	C296.093323,119.647194 296.259918,119.403214 296.713257,119.118500 
	C296.800751,119.341026 296.685944,119.661957 296.291138,119.965866 
z"/>
<path fill="#DB6E0E" opacity="1.000000" stroke="none" 
	d="
M430.901154,119.327057 
	C431.149292,119.197083 431.445892,119.356331 431.866089,119.739677 
	C431.642975,119.847946 431.296326,119.732117 430.901154,119.327057 
z"/>
<path fill="#DB6E0E" opacity="1.000000" stroke="none" 
	d="
M468.257019,119.994690 
	C468.263580,119.820145 468.513977,119.694641 468.863098,119.712967 
	C468.961792,119.856796 468.500824,120.043716 468.257019,119.994690 
z"/>
<path fill="#F1F1F1" opacity="1.000000" stroke="none" 
	d="
M564.323608,52.766869 
	C556.497070,44.457428 556.380859,34.657352 563.742859,27.812572 
	C570.351440,21.668274 580.771851,22.136803 587.029358,28.859550 
	C592.696350,34.947739 593.065918,44.167389 587.378845,50.628605 
	C581.968323,56.775532 573.492859,59.290070 564.323608,52.766869 
M583.083801,43.206806 
	C582.444275,42.081867 581.804688,40.956928 581.165161,39.831989 
	C582.681946,37.288788 584.242493,33.840076 583.130188,32.099781 
	C581.775085,29.979708 578.289612,28.821430 575.506287,28.130495 
	C572.902527,27.484098 570.012146,27.992182 566.925598,27.992182 
	C566.925598,35.341705 566.849365,42.114063 567.009155,48.880852 
	C567.032715,49.876434 568.175842,50.845573 568.800964,51.826950 
	C569.204651,51.599129 569.608337,51.371304 570.012024,51.143482 
	C570.147156,48.066753 570.282227,44.990025 570.414490,41.978577 
	C579.015808,40.860954 579.117249,40.995960 580.064575,48.765015 
	C580.196411,49.846554 581.403442,50.796989 582.112793,51.808109 
	C582.475769,51.526848 582.838684,51.245583 583.201660,50.964317 
	C583.201660,48.657982 583.201660,46.351650 583.083801,43.206806 
z"/>
<path fill="#191919" opacity="1.000000" stroke="none" 
	d="
M583.142700,43.626060 
	C583.201660,46.351650 583.201660,48.657982 583.201660,50.964317 
	C582.838684,51.245583 582.475769,51.526848 582.112793,51.808109 
	C581.403442,50.796989 580.196411,49.846554 580.064575,48.765015 
	C579.117249,40.995960 579.015808,40.860954 570.414490,41.978577 
	C570.282227,44.990025 570.147156,48.066753 570.012024,51.143482 
	C569.608337,51.371304 569.204651,51.599129 568.800964,51.826950 
	C568.175842,50.845573 567.032715,49.876434 567.009155,48.880852 
	C566.849365,42.114063 566.925598,35.341705 566.925598,27.992182 
	C570.012146,27.992182 572.902527,27.484098 575.506287,28.130495 
	C578.289612,28.821430 581.775085,29.979708 583.130188,32.099781 
	C584.242493,33.840076 582.681946,37.288788 581.165161,39.831989 
	C581.804688,40.956928 582.444275,42.081867 583.142700,43.626060 
M570.282837,31.865095 
	C570.282837,33.942902 570.282837,36.020710 570.282837,38.320038 
	C572.895447,38.320038 575.028503,38.776768 576.797363,38.170727 
	C578.132568,37.713245 579.853699,35.887527 579.841248,34.686970 
	C579.828552,33.465714 578.106018,31.642052 576.766907,31.207361 
	C574.982483,30.628128 572.845276,31.135971 570.282837,31.865095 
z"/>
<path fill="#F5F5F5" opacity="1.000000" stroke="none" 
	d="
M570.571167,31.520979 
	C572.845276,31.135971 574.982483,30.628128 576.766907,31.207361 
	C578.106018,31.642052 579.828552,33.465714 579.841248,34.686970 
	C579.853699,35.887527 578.132568,37.713245 576.797363,38.170727 
	C575.028503,38.776768 572.895447,38.320038 570.282837,38.320038 
	C570.282837,36.020710 570.282837,33.942902 570.571167,31.520979 
z"/>
</svg>